<?xml version="1.0" encoding="utf-8"?>
<!-- Generator: Adobe Illustrator 19.0.0, SVG Export Plug-In . SVG Version: 6.00 Build 0)  -->
<svg version="1.1" id="Capa_1" xmlns="http://www.w3.org/2000/svg" xmlns:xlink="http://www.w3.org/1999/xlink" x="0px" y="0px"
	 viewBox="52 -52.6 124.6 124.6" style="enable-background:new 52 -52.6 124.6 124.6;" xml:space="preserve">
<style type="text/css">
	.st0{fill:#FFFFFF;}
</style>
<g>
	<path class="st0" d="M58,39.8h23.1l25.6,19.3c4,3,9.6,0.2,9.6-4.8v-89.2c0-4.9-5.7-7.8-9.6-4.8L81.1-20.4H58c-3.3,0-6,2.7-6,6v48.3
		C52,37.1,54.7,39.8,58,39.8z"/>
	<path class="st0" d="M174.4-12c-2.7-2.7-7.2-2.7-9.9,0L152.7-0.2L140.9-12c-2.7-2.7-7.2-2.7-9.9,0c-2.7,2.7-2.7,7.2,0,9.9
		l11.8,11.8L131,21.5c-2.7,2.7-2.7,7.2,0,9.9c1.4,1.4,3.2,2.1,5,2.1c1.8,0,3.6-0.7,5-2.1l11.8-11.8l11.8,11.8c1.4,1.4,3.2,2.1,5,2.1
		c1.8,0,3.6-0.7,5-2.1c2.7-2.7,2.7-7.2,0-9.9l-12-11.8l11.8-11.8C177.1-4.8,177.1-9.3,174.4-12z"/>
</g>
</svg>
