<?xml version="1.0" encoding="utf-8"?>
<!-- Generator: Adobe Illustrator 19.0.0, SVG Export Plug-In . SVG Version: 6.00 Build 0)  -->
<svg version="1.1" id="Capa_1" xmlns="http://www.w3.org/2000/svg" xmlns:xlink="http://www.w3.org/1999/xlink" x="0px" y="0px"
	 viewBox="164 -163.2 347.2 347.2" style="enable-background:new 164 -163.2 347.2 347.2;" xml:space="preserve">
<style type="text/css">
	.st0{fill:#FFFFFF;}
</style>
<g>
	<g>
		<path class="st0" d="M374.1-163.2c-4.9,0-9.2,1.8-12.8,5.4l-95.1,95.1h-74.8c-5,0-9.2,1.8-12.9,5.4c-3.6,3.6-5.4,7.9-5.4,12.8
			V65.2c0,4.9,1.8,9.2,5.4,12.8c3.6,3.6,7.9,5.4,12.9,5.4h74.8l95.1,95.1c3.6,3.6,7.9,5.4,12.8,5.4c4.9,0,9.2-1.8,12.9-5.4
			c3.6-3.6,5.4-7.9,5.4-12.8v-310.6c0-4.9-1.8-9.2-5.4-12.9C383.4-161.4,379.1-163.2,374.1-163.2z"/>
		<path class="st0" d="M489.9-30.1c-8.1-12.6-18.8-21.4-32.1-26.6c-1.9-0.9-4.3-1.4-7.1-1.4c-4.9,0-9.2,1.8-12.8,5.3
			c-3.6,3.5-5.4,7.9-5.4,13c0,4,1.1,7.4,3.4,10.1c2.3,2.8,5,5.1,8.3,7.1c3.2,2,6.5,4.2,9.7,6.6c3.2,2.4,6,5.8,8.3,10.1
			c2.3,4.4,3.4,9.8,3.4,16.3c0,6.5-1.1,11.9-3.4,16.3c-2.3,4.4-5,7.8-8.3,10.1c-3.2,2.4-6.5,4.6-9.7,6.6c-3.2,2-6,4.4-8.3,7.1
			c-2.3,2.8-3.4,6.1-3.4,10.1c0,5.1,1.8,9.5,5.4,13c3.6,3.5,7.9,5.3,12.8,5.3c2.9,0,5.2-0.5,7.1-1.4c13.3-5.3,24-14.2,32.1-26.7
			C498,38.3,502,24.9,502,10.4C502-4.1,498-17.6,489.9-30.1z"/>
	</g>
</g>
</svg>
